<svg width="22" height="23" viewBox="0 0 22 23" fill="none" xmlns="http://www.w3.org/2000/svg">
<path d="M11 16.2713V13.4182" stroke="white" stroke-width="1.5" stroke-linecap="round" stroke-linejoin="round"/>
<path d="M20.9102 10.8005L20.8787 10.8233C18.2493 12.4431 14.7773 13.4213 10.9949 13.4213C7.21247 13.4213 3.7503 12.4431 1.12193 10.8233L1.08936 10.8005" stroke="white" stroke-width="1.5" stroke-linecap="round" stroke-linejoin="round"/>
<path fill-rule="evenodd" clip-rule="evenodd" d="M1 12.8341C1 6.15515 3.50027 3.92847 11 3.92847C18.5008 3.92847 21 6.15515 21 12.8341C21 19.5131 18.5008 21.7398 11 21.7398C3.50027 21.7398 1 19.5131 1 12.8341Z" stroke="white" stroke-width="1.5" stroke-linecap="round" stroke-linejoin="round"/>
<path d="M14.5421 4.16904V3.48507C14.5421 2.1128 13.54 1 12.3056 1H9.69459C8.46019 1 7.45813 2.1128 7.45813 3.48507V4.16904" stroke="white" stroke-width="1.5" stroke-linecap="round" stroke-linejoin="round"/>
</svg>
