<svg width="16" height="16" viewBox="0 0 16 16" fill="none" xmlns="http://www.w3.org/2000/svg">
<path d="M4.27992 11.8199C2.79325 10.8466 1.83325 9.3799 1.83325 8.09323C1.83325 5.90656 4.59325 3.22656 7.99992 3.22656C9.39325 3.22656 10.6866 3.67323 11.7266 4.36656" stroke="#C6CEDD" stroke-width="1.2" stroke-linecap="round" stroke-linejoin="round"/>
<path d="M13.233 5.74023C13.827 6.49357 14.173 7.3269 14.173 8.09357C14.173 10.2802 11.4063 12.9602 7.99967 12.9602C7.393 12.9602 6.80034 12.8736 6.24634 12.7202" stroke="#C6CEDD" stroke-width="1.2" stroke-linecap="round" stroke-linejoin="round"/>
<path d="M6.51048 9.57812C6.11381 9.18545 5.89181 8.65012 5.89381 8.09212C5.89115 6.92878 6.83248 5.98345 7.99648 5.98145C8.55648 5.98012 9.09381 6.20212 9.48981 6.59812" stroke="#C6CEDD" stroke-width="1.2" stroke-linecap="round" stroke-linejoin="round"/>
<path d="M10.0729 8.46631C9.91692 9.32764 9.24293 10.003 8.38159 10.161" stroke="#C6CEDD" stroke-width="1.2" stroke-linecap="round" stroke-linejoin="round"/>
<path d="M13.2611 2.8335L2.74512 13.3495" stroke="#C6CEDD" stroke-width="1.2" stroke-linecap="round" stroke-linejoin="round"/>
</svg>
