<svg width="159" height="157" viewBox="0 0 159 157" fill="none" xmlns="http://www.w3.org/2000/svg">
<g clip-path="url(#clip0_5_590)">
<path opacity="0.2" d="M16.9602 120.823C-5.38446 100.07 -2.58082 65.0444 7.83992 53.2928C18.2607 41.5412 36.1431 33.6438 44.6081 20.3518C53.0731 7.05993 63.4803 -2.95546 85.1021 0.800732C106.724 4.55692 108.345 20.8416 115.804 30.1443C123.262 39.4469 151.856 41.7371 153.328 67.7062C154.801 93.6752 137.067 95.7425 129.737 103.045C122.407 110.348 113.223 141.871 87.7402 145.208C56.5084 149.302 35.8695 138.385 16.9602 120.823Z" fill="#F8AB74"/>
<path d="M124.644 21.6152H10.5289V135.73H124.644V21.6152Z" fill="#91C4FB"/>
<path d="M124.644 15.8865H10.5289V130.001H124.644V15.8865Z" fill="#E4E7FF"/>
<path d="M124.644 15.8865H10.5289V35.7551H124.644V15.8865Z" fill="#7371FC"/>
<path d="M20.9495 27.1718C22.9736 27.1718 24.6145 25.5309 24.6145 23.5068C24.6145 21.4827 22.9736 19.8418 20.9495 19.8418C18.9254 19.8418 17.2845 21.4827 17.2845 23.5068C17.2845 25.5309 18.9254 27.1718 20.9495 27.1718Z" fill="#443DC3"/>
<path d="M20.9429 24.8545C20.5012 24.8545 20.0776 24.679 19.7653 24.3667C19.453 24.0544 19.2776 23.6309 19.2776 23.1892V7.20851C19.2771 6.98969 19.3199 6.77294 19.4034 6.5707C19.487 6.36846 19.6096 6.1847 19.7644 6.02998C19.9191 5.87525 20.1028 5.7526 20.3051 5.66907C20.5073 5.58554 20.7241 5.54277 20.9429 5.54322C21.1614 5.54322 21.3778 5.58631 21.5797 5.67004C21.7815 5.75377 21.9649 5.87649 22.1192 6.03117C22.2736 6.18585 22.3959 6.36946 22.4793 6.57148C22.5626 6.7735 22.6052 6.98998 22.6048 7.20851V23.1892C22.6048 23.6303 22.4298 24.0533 22.1182 24.3656C21.8067 24.6778 21.384 24.8536 20.9429 24.8545Z" fill="#FE814B"/>
<path d="M32.6065 27.1718C34.6306 27.1718 36.2715 25.5309 36.2715 23.5068C36.2715 21.4827 34.6306 19.8418 32.6065 19.8418C30.5824 19.8418 28.9415 21.4827 28.9415 23.5068C28.9415 25.5309 30.5824 27.1718 32.6065 27.1718Z" fill="#443DC3"/>
<path d="M32.6066 24.8545C32.3879 24.8545 32.1713 24.8114 31.9693 24.7277C31.7673 24.644 31.5837 24.5214 31.429 24.3667C31.2744 24.2121 31.1517 24.0285 31.068 23.8265C30.9844 23.6244 30.9413 23.4079 30.9413 23.1892V7.2085C30.9413 6.98981 30.9844 6.77327 31.068 6.57122C31.1517 6.36918 31.2744 6.1856 31.429 6.03097C31.5837 5.87633 31.7673 5.75366 31.9693 5.66998C32.1713 5.58629 32.3879 5.54321 32.6066 5.54321C33.0482 5.54321 33.4718 5.71866 33.7841 6.03097C34.0964 6.34327 34.2719 6.76684 34.2719 7.2085V23.1892C34.2719 23.6309 34.0964 24.0544 33.7841 24.3667C33.4718 24.679 33.0482 24.8545 32.6066 24.8545Z" fill="#FE814B"/>
<path d="M44.267 27.1718C46.2911 27.1718 47.932 25.5309 47.932 23.5068C47.932 21.4827 46.2911 19.8418 44.267 19.8418C42.2429 19.8418 40.602 21.4827 40.602 23.5068C40.602 25.5309 42.2429 27.1718 44.267 27.1718Z" fill="#443DC3"/>
<path d="M44.267 24.8545C43.8254 24.8545 43.4018 24.6791 43.0895 24.3668C42.7772 24.0545 42.6017 23.6309 42.6017 23.1892V7.20852C42.6017 6.76685 42.7772 6.34328 43.0895 6.03098C43.4018 5.71868 43.8254 5.54323 44.267 5.54323C44.4863 5.54234 44.7036 5.58475 44.9064 5.66805C45.1092 5.75134 45.2936 5.87386 45.4489 6.02858C45.6043 6.18331 45.7276 6.36719 45.8117 6.56967C45.8958 6.77216 45.9391 6.98926 45.9391 7.20852V23.1892C45.9391 23.4085 45.8958 23.6256 45.8117 23.8281C45.7276 24.0305 45.6043 24.2144 45.4489 24.3692C45.2936 24.5239 45.1092 24.6464 44.9064 24.7297C44.7036 24.813 44.4863 24.8554 44.267 24.8545Z" fill="#FE814B"/>
<path d="M55.924 27.1718C57.9481 27.1718 59.589 25.5309 59.589 23.5068C59.589 21.4827 57.9481 19.8418 55.924 19.8418C53.8999 19.8418 52.259 21.4827 52.259 23.5068C52.259 25.5309 53.8999 27.1718 55.924 27.1718Z" fill="#443DC3"/>
<path d="M55.9241 24.8545C55.483 24.8536 55.0603 24.6778 54.7488 24.3656C54.4372 24.0533 54.2622 23.6303 54.2622 23.1892V7.20851C54.2618 6.98998 54.3044 6.7735 54.3877 6.57148C54.4711 6.36946 54.5934 6.18585 54.7478 6.03117C54.9021 5.87649 55.0855 5.75377 55.2874 5.67004C55.4892 5.58631 55.7056 5.54322 55.9241 5.54322C56.1429 5.54277 56.3597 5.58554 56.5619 5.66907C56.7642 5.7526 56.9479 5.87525 57.1027 6.02998C57.2574 6.1847 57.38 6.36846 57.4636 6.5707C57.5471 6.77294 57.5899 6.98969 57.5894 7.20851V23.1892C57.5894 23.6309 57.414 24.0544 57.1017 24.3667C56.7894 24.679 56.3658 24.8545 55.9241 24.8545Z" fill="#FE814B"/>
<path d="M67.5845 27.1718C69.6086 27.1718 71.2495 25.5309 71.2495 23.5068C71.2495 21.4827 69.6086 19.8418 67.5845 19.8418C65.5604 19.8418 63.9195 21.4827 63.9195 23.5068C63.9195 25.5309 65.5604 27.1718 67.5845 27.1718Z" fill="#443DC3"/>
<path d="M67.5845 24.8545C67.1429 24.8545 66.7193 24.679 66.407 24.3667C66.0947 24.0544 65.9193 23.6309 65.9193 23.1892V7.2085C65.9193 6.76684 66.0947 6.34327 66.407 6.03097C66.7193 5.71866 67.1429 5.54321 67.5845 5.54321C68.0256 5.54411 68.4483 5.71995 68.7599 6.03216C69.0715 6.34436 69.2465 6.76743 69.2465 7.2085V23.1892C69.2465 23.6303 69.0715 24.0533 68.7599 24.3655C68.4483 24.6778 68.0256 24.8536 67.5845 24.8545Z" fill="#FE814B"/>
<path d="M79.245 27.1718C81.2691 27.1718 82.9099 25.5309 82.9099 23.5068C82.9099 21.4827 81.2691 19.8418 79.245 19.8418C77.2208 19.8418 75.58 21.4827 75.58 23.5068C75.58 25.5309 77.2208 27.1718 79.245 27.1718Z" fill="#443DC3"/>
<path d="M79.245 24.8545C78.8033 24.8545 78.3798 24.679 78.0675 24.3667C77.7552 24.0544 77.5797 23.6309 77.5797 23.1892V7.20851C77.5793 6.98969 77.622 6.77294 77.7056 6.5707C77.7891 6.36846 77.9118 6.1847 78.0665 6.02998C78.2212 5.87525 78.405 5.7526 78.6072 5.66907C78.8094 5.58554 79.0262 5.54277 79.245 5.54322C79.6867 5.54322 80.1102 5.71867 80.4225 6.03097C80.7348 6.34327 80.9103 6.76684 80.9103 7.20851V23.1892C80.9103 23.6309 80.7348 24.0544 80.4225 24.3667C80.1102 24.679 79.6867 24.8545 79.245 24.8545Z" fill="#FE814B"/>
<path d="M90.902 27.1718C92.9261 27.1718 94.567 25.5309 94.567 23.5068C94.567 21.4827 92.9261 19.8418 90.902 19.8418C88.8779 19.8418 87.237 21.4827 87.237 23.5068C87.237 25.5309 88.8779 27.1718 90.902 27.1718Z" fill="#443DC3"/>
<path d="M90.9019 24.8545C90.6832 24.8545 90.4667 24.8114 90.2646 24.7277C90.0626 24.644 89.879 24.5214 89.7244 24.3667C89.5698 24.2121 89.4471 24.0285 89.3634 23.8265C89.2797 23.6244 89.2366 23.4079 89.2366 23.1892V7.2085C89.2366 6.98981 89.2797 6.77327 89.3634 6.57122C89.4471 6.36918 89.5698 6.1856 89.7244 6.03097C89.879 5.87633 90.0626 5.75366 90.2646 5.66998C90.4667 5.58629 90.6832 5.54321 90.9019 5.54321C91.3412 5.54678 91.7614 5.7238 92.0707 6.03572C92.3801 6.34763 92.5537 6.76917 92.5537 7.2085V23.1892C92.5537 23.6285 92.3801 24.0501 92.0707 24.362C91.7614 24.6739 91.3412 24.8509 90.9019 24.8545Z" fill="#FE814B"/>
<path d="M102.562 27.1718C104.587 27.1718 106.227 25.5309 106.227 23.5068C106.227 21.4827 104.587 19.8418 102.562 19.8418C100.538 19.8418 98.8975 21.4827 98.8975 23.5068C98.8975 25.5309 100.538 27.1718 102.562 27.1718Z" fill="#443DC3"/>
<path d="M102.562 24.8545C102.121 24.8545 101.697 24.679 101.385 24.3667C101.073 24.0544 100.897 23.6309 100.897 23.1892V7.2085C100.897 6.76684 101.073 6.34327 101.385 6.03097C101.697 5.71866 102.121 5.54321 102.562 5.54321C103.004 5.54321 103.428 5.71866 103.74 6.03097C104.052 6.34327 104.228 6.76684 104.228 7.2085V23.1892C104.228 23.6309 104.052 24.0544 103.74 24.3667C103.428 24.679 103.004 24.8545 102.562 24.8545Z" fill="#FE814B"/>
<path d="M114.223 27.1718C116.247 27.1718 117.888 25.5309 117.888 23.5068C117.888 21.4827 116.247 19.8418 114.223 19.8418C112.199 19.8418 110.558 21.4827 110.558 23.5068C110.558 25.5309 112.199 27.1718 114.223 27.1718Z" fill="#443DC3"/>
<path d="M114.223 24.8545C113.781 24.8545 113.358 24.679 113.045 24.3667C112.733 24.0544 112.557 23.6309 112.557 23.1892V7.20851C112.557 6.98969 112.6 6.77294 112.683 6.5707C112.767 6.36846 112.89 6.1847 113.044 6.02998C113.199 5.87525 113.383 5.7526 113.585 5.66907C113.787 5.58554 114.004 5.54277 114.223 5.54322C114.441 5.54322 114.658 5.58631 114.86 5.67004C115.061 5.75377 115.245 5.87649 115.399 6.03117C115.554 6.18585 115.676 6.36946 115.759 6.57148C115.842 6.7735 115.885 6.98998 115.885 7.20851V23.1892C115.885 23.6303 115.71 24.0533 115.398 24.3656C115.087 24.6778 114.664 24.8536 114.223 24.8545Z" fill="#FE814B"/>
<g style="mix-blend-mode:multiply">
<path d="M29.5428 53.2693H17.2845V65.5276H29.5428V53.2693Z" fill="#E4E7FF"/>
</g>
<g style="mix-blend-mode:multiply">
<path d="M44.3955 53.2693H32.1371V65.5276H44.3955V53.2693Z" fill="#E4E7FF"/>
</g>
<g style="mix-blend-mode:multiply">
<path d="M59.2513 53.2693H46.993V65.5276H59.2513V53.2693Z" fill="#E4E7FF"/>
</g>
<g style="mix-blend-mode:multiply">
<path d="M74.1038 53.2693H61.8455V65.5276H74.1038V53.2693Z" fill="#E4E7FF"/>
</g>
<g style="mix-blend-mode:multiply">
<path d="M88.9597 53.2693H76.7014V65.5276H88.9597V53.2693Z" fill="#E4E7FF"/>
</g>
<g style="mix-blend-mode:multiply">
<path d="M103.816 53.2693H91.5574V65.5276H103.816V53.2693Z" fill="#E4E7FF"/>
</g>
<g style="mix-blend-mode:multiply">
<path d="M118.668 53.2693H106.41V65.5276H118.668V53.2693Z" fill="#E4E7FF"/>
</g>
<g style="mix-blend-mode:multiply">
<path d="M29.5428 68.2603H17.2845V80.5185H29.5428V68.2603Z" fill="#E4E7FF"/>
</g>
<g style="mix-blend-mode:multiply">
<path d="M44.3955 68.2603H32.1371V80.5185H44.3955V68.2603Z" fill="#E4E7FF"/>
</g>
<g style="mix-blend-mode:multiply">
<path d="M59.2513 68.2603H46.993V80.5185H59.2513V68.2603Z" fill="#E4E7FF"/>
</g>
<g style="mix-blend-mode:multiply">
<path d="M74.1038 68.2603H61.8455V80.5185H74.1038V68.2603Z" fill="#E4E7FF"/>
</g>
<g style="mix-blend-mode:multiply">
<path d="M88.9597 68.2603H76.7014V80.5185H88.9597V68.2603Z" fill="#E4E7FF"/>
</g>
<g style="mix-blend-mode:multiply">
<path d="M103.816 68.2603H91.5574V80.5185H103.816V68.2603Z" fill="#E4E7FF"/>
</g>
<g style="mix-blend-mode:multiply">
<path d="M118.668 68.2603H106.41V80.5185H118.668V68.2603Z" fill="#E4E7FF"/>
</g>
<g style="mix-blend-mode:multiply">
<path d="M29.5428 83.2478H17.2845V95.5061H29.5428V83.2478Z" fill="#E4E7FF"/>
</g>
<g style="mix-blend-mode:multiply">
<path d="M44.3955 83.2478H32.1371V95.5061H44.3955V83.2478Z" fill="#E4E7FF"/>
</g>
<g style="mix-blend-mode:multiply">
<path d="M59.2513 83.2478H46.993V95.5061H59.2513V83.2478Z" fill="#E4E7FF"/>
</g>
<g style="mix-blend-mode:multiply">
<path d="M74.1038 83.2478H61.8455V95.5061H74.1038V83.2478Z" fill="#E4E7FF"/>
</g>
<g style="mix-blend-mode:multiply">
<path d="M88.9597 83.2478H76.7014V95.5061H88.9597V83.2478Z" fill="#E4E7FF"/>
</g>
<g style="mix-blend-mode:multiply">
<path d="M103.816 83.2478H91.5574V95.5061H103.816V83.2478Z" fill="#E4E7FF"/>
</g>
<g style="mix-blend-mode:multiply">
<path d="M118.668 83.2478H106.41V95.5061H118.668V83.2478Z" fill="#E4E7FF"/>
</g>
<g style="mix-blend-mode:multiply">
<path d="M29.5428 98.2354H17.2845V110.494H29.5428V98.2354Z" fill="#E4E7FF"/>
</g>
<g style="mix-blend-mode:multiply">
<path d="M44.3955 98.2354H32.1371V110.494H44.3955V98.2354Z" fill="#E4E7FF"/>
</g>
<g style="mix-blend-mode:multiply">
<path d="M59.2513 98.2354H46.993V110.494H59.2513V98.2354Z" fill="#E4E7FF"/>
</g>
<g style="mix-blend-mode:multiply">
<path d="M74.1038 98.2354H61.8455V110.494H74.1038V98.2354Z" fill="#E4E7FF"/>
</g>
<g style="mix-blend-mode:multiply">
<path d="M88.9597 98.2354H76.7014V110.494H88.9597V98.2354Z" fill="#E4E7FF"/>
</g>
<g style="mix-blend-mode:multiply">
<path d="M103.816 98.2354H91.5574V110.494H103.816V98.2354Z" fill="#E4E7FF"/>
</g>
<g style="mix-blend-mode:multiply">
<path d="M118.668 98.2354H106.41V110.494H118.668V98.2354Z" fill="#E4E7FF"/>
</g>
<g style="mix-blend-mode:multiply">
<path d="M118.668 41.7068H46.993V43.0512H118.668V41.7068Z" fill="#E4E7FF"/>
</g>
<g style="mix-blend-mode:multiply">
<path d="M118.668 44.4089H46.993V45.7533H118.668V44.4089Z" fill="#E4E7FF"/>
</g>
<g style="mix-blend-mode:multiply">
<path d="M118.668 47.1147H46.993V48.4591H118.668V47.1147Z" fill="#E4E7FF"/>
</g>
<g style="mix-blend-mode:multiply">
<path d="M118.671 115.3H17.2845V116.645H118.671V115.3Z" fill="#E4E7FF"/>
</g>
<g style="mix-blend-mode:multiply">
<path d="M118.671 118.002H17.2845V119.347H118.671V118.002Z" fill="#E4E7FF"/>
</g>
<g style="mix-blend-mode:multiply">
<path d="M118.671 120.708H17.2845V122.053H118.671V120.708Z" fill="#E4E7FF"/>
</g>
<path d="M44.3988 41.7068H18.1257V48.4558H44.3988V41.7068Z" fill="#FE814B"/>
<path d="M10.5289 130.893H124.559" stroke="#E4E7FF" stroke-width="0.211383" stroke-miterlimit="10"/>
<path d="M10.5289 132.19H124.559" stroke="#E4E7FF" stroke-width="0.211383" stroke-miterlimit="10"/>
<path d="M10.5289 133.483H124.559" stroke="#E4E7FF" stroke-width="0.211383" stroke-miterlimit="10"/>
<path d="M10.5289 134.777H124.559" stroke="#E4E7FF" stroke-width="0.211383" stroke-miterlimit="10"/>
<path d="M50.1716 54.6104C50.5094 55.2522 50.8742 55.8703 51.2458 56.4885L52.3571 58.3362L54.5798 62.0248H53.3367C54.5662 59.3833 55.9174 56.8116 57.3902 54.3098C58.1333 53.06 58.9068 51.8237 59.7378 50.6211C60.5545 49.4039 61.4445 48.2375 62.4029 47.1284C61.8625 48.4998 61.2815 49.8307 60.6701 51.1515C60.0587 52.4722 59.4304 53.7761 58.7751 55.0698C57.4611 57.6505 56.0728 60.194 54.573 62.6801L53.8974 63.8286L53.3435 62.6903C53.0226 62.035 52.7152 61.383 52.4179 60.7243C52.1207 60.0657 51.8403 59.3968 51.5599 58.728C51.2796 58.0592 51.0262 57.3769 50.7796 56.7013C50.5301 56.0188 50.327 55.3203 50.1716 54.6104Z" fill="#32338C"/>
<path d="M49.6041 85.1226C49.9419 85.7644 50.3067 86.3825 50.6817 87.0007L51.793 88.8484L54.0123 92.5539H52.7726C54.0021 89.9124 55.3533 87.3407 56.826 84.8388C57.5692 83.589 58.3427 82.3527 59.1905 81.1502C60.0072 79.9338 60.896 78.7675 61.8523 77.6575C61.3152 79.0289 60.7342 80.3598 60.1228 81.6805C59.5114 83.0013 58.8832 84.3051 58.2278 85.5988C56.9139 88.1795 55.5255 90.7231 54.0258 93.2092L53.3502 94.3577L52.776 93.2294C52.4584 92.5741 52.151 91.9222 51.8538 91.2635C51.5565 90.6048 51.2762 89.936 50.9958 89.2672C50.7154 88.5984 50.4621 87.9161 50.2155 87.2405C49.9653 86.5487 49.761 85.8412 49.6041 85.1226Z" fill="#FE814B"/>
<path d="M20.1592 95.8777C21.2502 97.2288 22.2197 98.58 23.1722 99.9683C24.1248 101.357 25.03 102.748 25.9319 104.15C27.7357 106.954 29.472 109.788 31.2622 112.595C29.1409 110.034 27.0669 107.433 24.9422 104.883C23.8816 103.599 22.8108 102.35 21.7197 101.1C20.6287 99.8501 19.514 98.6509 18.3621 97.543L20.1592 95.8777Z" fill="#7371FC"/>
<path d="M20.5172 108.264C22.0575 105.447 23.7251 102.713 25.5198 100.063C26.4206 98.741 27.3484 97.445 28.3032 96.1749C29.2592 94.8981 30.259 93.6652 31.242 92.4221C30.4279 93.7733 29.5936 95.1244 28.8133 96.5093C28.033 97.8943 27.2865 99.2792 26.5771 100.684C25.1517 103.498 23.8748 106.379 22.7399 109.298L20.5172 108.264Z" fill="#7371FC"/>
<path d="M39.207 66.598C37.2276 65.9968 34.988 66.598 33.4004 67.912C31.834 69.2948 30.8273 71.2026 30.5698 73.2761C30.3406 74.6011 30.499 75.964 31.0258 77.2012C31.9885 79.2786 34.2145 80.5047 36.4304 81.0283C39.1833 81.6735 42.3248 81.3661 44.4393 79.4812C46.5539 77.5964 47.2328 74.4144 46.4357 71.7121C45.7939 69.5402 44.1792 67.5844 42.014 66.9324C41.015 66.6569 39.9707 66.5857 38.9435 66.723C36.6939 66.9662 34.4746 67.8681 32.887 69.4827C31.2994 71.0974 30.4279 73.4484 30.8332 75.6642C31.0754 76.9191 31.6506 78.0858 32.4985 79.0421C35.1096 82.0383 40.0312 82.6666 43.3077 80.4203C46.5843 78.174 47.78 73.3572 45.929 69.8408C45.0237 68.1248 43.3652 66.696 41.4296 66.5474C39.9636 66.4359 38.4166 67.0372 37.0654 66.4595" stroke="#32338C" stroke-width="0.422766" stroke-miterlimit="10"/>
<path d="M37.133 77.661L37.5823 70.4492L42.8315 76.7726L34.2078 74.0534L42.8315 71.4052L37.133 77.661Z" fill="#32338C"/>
<path d="M38.2511 81.2583C37.4809 87.3081 39.7542 93.5943 43.9428 98.026C48.1314 102.458 54.1034 105.059 60.1836 105.515C66.2638 105.971 72.2562 104.437 77.5493 101.407" stroke="#32338C" stroke-width="0.845531" stroke-miterlimit="10"/>
<path d="M72.0974 100.532C73.9046 100.87 77.5493 101.35 77.5493 101.35L74.8234 105.593" stroke="#32338C" stroke-width="0.997727" stroke-miterlimit="10"/>
<path d="M100.999 157H116.088L115.523 134.814L121.979 157H139.638C138.75 146.529 137.591 134.818 136.378 127.657C133.784 112.301 127.934 109.237 127.934 109.237L106.633 108.531C106.633 108.531 98.7522 119.057 99.0866 133.227C99.2319 139.229 100.073 148.41 100.999 157Z" fill="#32338C"/>
<path d="M100.728 91.5405C99.4631 91.3626 98.1839 91.3061 96.9079 91.3716C96.6013 91.3668 96.2979 91.4352 96.0229 91.5709C95.8225 91.7209 95.6579 91.9135 95.541 92.135C95.4242 92.3564 95.358 92.601 95.3473 92.8511C95.1784 94.1313 95.5095 95.425 95.8979 96.658C95.9835 96.9214 96.0713 97.1849 96.1614 97.4484C96.9555 97.1358 97.6841 96.6776 98.3097 96.0972C99.5814 94.8752 100.429 93.2785 100.728 91.5405Z" fill="#FE5228"/>
<path d="M112.706 75.9517C112.591 75.4889 112.318 74.3371 111.784 74.1783C111.325 74.0398 110.416 74.7221 110.044 74.9484C107.538 76.4651 105.653 78.8803 104.376 81.4846C102.819 84.6632 102.066 88.1627 101.336 91.6182C101.14 91.5845 100.938 91.5608 100.738 91.5338C100.443 93.2714 99.6006 94.8692 98.3333 96.0939C97.7076 96.6742 96.979 97.1325 96.1849 97.4451C97.8131 102.194 100.607 106.768 105.042 109.055C105.771 109.43 106.677 109.73 107.383 109.318C108.089 108.906 108.274 107.93 108.369 107.096C109.382 98.1105 111.409 89.2672 112.682 80.3125C112.878 78.887 113.054 77.3704 112.706 75.9517Z" fill="#FE814B"/>
<path d="M137.219 78.3262L123.424 72.0906C123.424 72.0906 112.095 71.9893 109.058 75.5057C106.021 79.022 103.61 86.7607 103.61 86.7607L106.65 108.531C106.65 108.531 107.839 112.267 114.246 113.871C120.654 115.476 127.951 109.237 127.951 109.237L137.219 78.3262Z" fill="#7371FC"/>
<path d="M140.118 100.187L137.207 98.6614L130.857 110.778L133.768 112.304L140.118 100.187Z" fill="#E4E7FF"/>
<path d="M143.032 101.713L140.121 100.187L133.771 112.304L136.682 113.829L143.032 101.713Z" fill="#D0CDFF"/>
<path d="M145.967 103.23L143.056 101.705L136.707 113.823L139.618 115.348L145.967 103.23Z" fill="#E4E7FF"/>
<path d="M149.912 104.592L146.987 103.08L140.694 115.256L143.619 116.768L149.912 104.592Z" fill="#D0CDFF"/>
<path d="M148.856 104.766L156.668 108.86C157.683 109.393 158.445 110.308 158.787 111.403C159.128 112.498 159.021 113.684 158.488 114.7L156.157 119.149C155.624 120.165 154.709 120.928 153.614 121.27C152.518 121.612 151.332 121.505 150.315 120.972L142.507 116.88L148.857 104.763L148.856 104.766Z" fill="#FE814B"/>
<path d="M64.1797 64.0178L54.4176 63.0044L61.1058 70.7735C61.3051 70.5269 61.5213 70.2938 61.7071 70.0371C63.0038 68.2589 63.852 66.194 64.1797 64.0178Z" fill="#32338C"/>
<path d="M72.854 64.9296L64.1796 64.0176C63.8525 66.195 63.0042 68.2612 61.707 70.0403C61.5213 70.297 61.3051 70.5301 61.1058 70.7767L66.4935 77.046L72.854 64.9296Z" fill="#FEC5B7"/>
<path d="M69.669 71.0242L68.493 73.2681L132.857 107.002L134.033 104.758L69.669 71.0242Z" fill="#7355FC"/>
<path d="M67.3157 75.5147L66.5097 77.0525L130.873 110.787L131.679 109.249L67.3157 75.5147Z" fill="#7355FC"/>
<path d="M68.4922 73.2691L67.3161 75.5129L131.68 109.247L132.856 107.003L68.4922 73.2691Z" fill="#7371FC"/>
<path d="M70.8341 68.7703L69.6584 71.0144L134.028 104.737L135.204 102.493L70.8341 68.7703Z" fill="#7371FC"/>
<path d="M72.0197 66.5388L70.8436 68.7827L135.207 102.517L136.383 100.273L72.0197 66.5388Z" fill="#7355FC"/>
<path d="M72.8601 64.9352L72.0196 66.5388L136.383 100.273L137.224 98.6695L72.8601 64.9352Z" fill="#7371FC"/>
<path d="M128.089 93.8715L105.393 81.978L128.724 92.1657L128.089 93.8715Z" fill="#32338C"/>
<path d="M111.703 60.2612C110.888 60.5875 110.017 60.7527 109.139 60.7476C108.701 60.7398 108.271 60.6271 107.886 60.419C107.5 60.211 107.17 59.9136 106.923 59.5519C106.308 58.5216 106.714 57.1367 107.511 56.2415C105.822 55.9916 104.133 54.6742 103.751 53.0123C103.569 52.1761 103.635 51.3047 103.941 50.5053C104.247 49.7059 104.78 49.0134 105.474 48.513C105.639 48.4238 105.773 48.2874 105.859 48.1212C105.895 47.9519 105.881 47.7759 105.819 47.6145C105.522 46.5293 105.516 45.3852 105.801 44.2969C106.086 43.2086 106.652 42.2143 107.442 41.4137C108.233 40.6131 109.219 40.0343 110.304 39.7353C111.389 39.4363 112.533 39.4277 113.622 39.7103C113.801 38.0551 114.973 36.4303 116.324 35.4845C117.725 34.57 119.362 34.0819 121.036 34.0793C122.293 34.0136 123.546 34.273 124.674 34.8326C125.234 35.1173 125.726 35.5203 126.115 36.0137C126.504 36.5071 126.781 37.0792 126.927 37.6903C128.184 36.5047 130.349 36.4641 131.919 37.1836C133.263 37.7765 134.36 38.8144 135.027 40.1224C135.351 40.7761 135.526 41.4934 135.54 42.2228C135.554 42.9521 135.407 43.6756 135.108 44.3413C136.983 44.4393 138.844 45.8242 139.591 47.5469C140.337 49.2696 139.8 51.5193 138.239 52.5462C138.89 53.0203 139.425 53.6359 139.803 54.3466C140.139 55.0271 140.299 55.7806 140.27 56.5388C140.299 57.2057 140.21 57.8725 140.006 58.5081C139.76 59.1729 139.333 59.7556 138.773 60.1907C138.213 60.6258 137.543 60.8959 136.838 60.9706C136.913 61.2906 136.925 61.6224 136.872 61.947C136.82 62.2716 136.703 62.5826 136.53 62.8622C136.191 63.4392 135.73 63.9349 135.179 64.3147C134.748 64.6448 134.263 64.8995 133.747 65.0679C133.003 65.2774 132.212 65.2461 131.487 64.9785C130.762 64.711 130.14 64.2208 129.71 63.5783L111.703 60.2612Z" fill="#32338C"/>
<path d="M124.171 71.4253C123.941 71.6707 123.691 71.8967 123.424 72.1009C122.494 72.7636 121.446 73.2429 120.337 73.5128C119.527 73.7602 118.676 73.8418 117.834 73.7526C117.739 73.7526 117.648 73.7189 117.557 73.6986C117.573 73.865 117.621 74.0267 117.699 74.1749C117.955 74.6309 118.516 74.8133 119.033 74.9079C120.429 75.1645 121.865 75.0974 123.232 74.712C123.384 74.6822 123.524 74.6068 123.634 74.4958C123.718 74.3629 123.761 74.2074 123.755 74.0499C123.825 73.1655 123.964 72.2879 124.171 71.4253Z" fill="#FE814B"/>
<path d="M120.337 73.5026C121.446 73.2327 122.494 72.7534 123.424 72.0907C123.691 71.8865 123.941 71.6605 124.171 71.4151C124.492 70.0099 124.91 68.6452 125.164 67.2096C123.752 66.6827 121.212 67.8852 120.077 68.7263C118.614 69.7903 117.567 71.4962 117.536 73.3033C117.533 73.4286 117.54 73.554 117.557 73.6783C117.648 73.6985 117.739 73.7188 117.834 73.7323C118.675 73.8247 119.526 73.7466 120.337 73.5026Z" fill="#FE5228"/>
<path d="M114.351 52.7797C116.006 52.1042 117.121 50.4152 117.358 48.6486C117.787 49.9592 118.114 51.5907 119.384 52.1244C120.118 52.3895 120.917 52.4167 121.668 52.2021C122.733 51.9497 123.721 51.4446 124.549 50.7294C124.492 51.7968 124.188 53.4722 124.809 54.3403C125.058 54.6702 125.366 54.9509 125.718 55.1679C126.678 55.7885 127.809 56.0911 128.95 56.0326C127.697 57.4209 126.924 59.5693 127.549 61.3325C127.846 62.1566 128.346 62.8929 129.001 63.4741C129.126 63.2511 129.258 63.0282 129.376 62.7985C130.298 61.1164 130.925 59.2882 131.227 57.3939C131.525 55.4863 131.22 53.5332 130.356 51.8069C129.082 49.4424 126.61 47.892 124.042 47.0779C122.795 46.6422 121.475 46.4485 120.155 46.507C118.401 46.6286 115.956 47.2975 114.669 48.5979C113.85 49.4576 113.18 50.4487 112.689 51.5299C112.46 52.0163 112.257 52.5129 112.078 53.0094C112.842 53.1502 113.631 53.0705 114.351 52.7797Z" fill="#32338C"/>
<path d="M127.552 61.3323C126.934 59.5691 127.701 57.4208 128.954 56.0325C127.812 56.0909 126.681 55.7883 125.721 55.1677C125.37 54.9507 125.061 54.67 124.813 54.3401C124.191 53.472 124.495 51.7966 124.552 50.7292C123.724 51.4444 122.736 51.9495 121.671 52.202C120.921 52.4165 120.122 52.3893 119.388 52.1243C118.114 51.5906 117.787 49.9591 117.361 48.6484C117.124 50.4151 116.01 52.1074 114.355 52.7796C113.634 53.0663 112.847 53.1424 112.085 52.9991C111.882 53.57 111.706 54.1409 111.568 54.6881C111.051 56.9198 110.857 59.2144 110.994 61.5012C111.095 63.9941 111.463 66.568 112.764 68.686C114.064 70.8039 116.479 72.4016 118.969 72.0976C119.89 71.9525 120.778 71.6399 121.587 71.1755C124.61 69.5575 126.991 66.9328 128.731 63.9671C128.829 63.8049 128.917 63.6293 129.008 63.4705C128.351 62.8907 127.851 62.1556 127.552 61.3323Z" fill="#FE814B"/>
<path d="M127.859 60.3187C127.398 61.2714 127.202 62.331 127.292 63.3858C127.336 64.1965 127.552 65.0747 128.238 65.5274C128.501 65.6736 128.795 65.7563 129.096 65.7686C129.397 65.7809 129.696 65.7226 129.971 65.5983C130.517 65.3443 130.998 64.9701 131.379 64.5039C132.005 63.8444 132.461 63.042 132.707 62.1664C132.827 61.7284 132.851 61.2698 132.778 60.8217C132.705 60.3735 132.537 59.9462 132.284 59.5688C131.764 58.8527 130.768 58.2548 129.89 58.5318C129.008 58.8435 128.281 59.4836 127.859 60.3187Z" fill="#FE814B"/>
<path d="M131.737 60.4638C131.626 60.2887 131.471 60.145 131.289 60.0463C131.106 59.9475 130.901 59.8971 130.693 59.8997C130.492 59.8993 130.293 59.9392 130.107 60.0169C129.922 60.0946 129.753 60.2087 129.613 60.3523C129.313 60.6343 129.082 60.9809 128.937 61.3657C128.797 61.7573 128.684 62.1579 128.599 62.5649L128.363 62.4297C128.506 62.2807 128.683 62.1675 128.878 62.0994C129.074 62.0314 129.282 62.0103 129.488 62.0379C129.7 62.0818 129.888 62.202 130.018 62.3757C130.14 62.5436 130.213 62.7426 130.227 62.9499C130.243 63.1483 130.209 63.3474 130.129 63.5295C130.049 63.7117 129.925 63.8711 129.768 63.9937C129.467 64.2223 129.107 64.3606 128.731 64.3923C129.086 64.3135 129.413 64.1422 129.68 63.8957C129.807 63.7812 129.905 63.6373 129.963 63.4766C130.022 63.3158 130.041 63.1432 130.018 62.9736C130.005 62.8141 129.941 62.663 129.837 62.5417C129.732 62.4204 129.593 62.3351 129.437 62.298C129.275 62.2854 129.112 62.3093 128.96 62.3677C128.808 62.4261 128.671 62.5177 128.559 62.6358L128.221 62.9736L128.332 62.5007C128.426 62.0785 128.554 61.6649 128.717 61.2644C128.882 60.8499 129.142 60.4805 129.477 60.1868C129.646 60.037 129.843 59.9225 130.056 59.85C130.27 59.7775 130.496 59.7484 130.721 59.7646C130.936 59.7815 131.144 59.8551 131.323 59.9779C131.501 60.1006 131.644 60.2682 131.737 60.4638Z" fill="#32338C"/>
<path d="M115.523 58.4847C115.483 59.032 115.162 59.4542 114.811 59.4272C114.459 59.4001 114.206 58.9374 114.247 58.3868C114.287 57.8362 114.608 57.4173 114.959 57.4444C115.311 57.4714 115.554 57.9341 115.523 58.4847Z" fill="#32328C"/>
<path d="M122.617 59.5116C122.576 60.0588 122.256 60.4844 121.904 60.4574C121.553 60.4304 121.3 59.9642 121.34 59.4136C121.381 58.863 121.702 58.4442 122.053 58.4712C122.404 58.4982 122.658 58.9644 122.617 59.5116Z" fill="#32328C"/>
<path d="M113.068 56.0288C113.206 55.7031 113.397 55.4019 113.632 55.137C113.881 54.8607 114.179 54.6318 114.51 54.4614C114.679 54.3736 114.848 54.279 115.04 54.2047C115.228 54.132 115.433 54.1121 115.631 54.1473C115.835 54.1795 116.028 54.2556 116.199 54.3703C116.384 54.485 116.53 54.6535 116.618 54.8533L116.574 54.9614C116.364 55.0526 116.199 55.1134 116.047 55.1674C115.912 55.2191 115.775 55.2631 115.635 55.2992C115.507 55.3331 115.374 55.3434 115.243 55.3296C115.104 55.3093 114.963 55.3093 114.824 55.3296C114.533 55.3842 114.251 55.4762 113.983 55.6032C113.692 55.7404 113.415 55.908 113.159 56.1031L113.068 56.0288Z" fill="#32338C"/>
<path d="M124.076 57.4678C123.875 57.2201 123.648 56.9937 123.401 56.7922C123.172 56.6023 122.92 56.4433 122.651 56.3193C122.521 56.2663 122.385 56.2311 122.245 56.2146C122.115 56.1955 121.989 56.1532 121.874 56.0896C121.747 56.0186 121.624 55.9407 121.506 55.8565C121.374 55.7687 121.229 55.6707 121.046 55.5187L121.029 55.4039C121.165 55.233 121.348 55.1061 121.556 55.0391C121.749 54.9683 121.956 54.9417 122.161 54.9614C122.361 54.978 122.554 55.048 122.718 55.164C122.876 55.2824 123.028 55.4098 123.171 55.5457C123.446 55.796 123.675 56.0934 123.846 56.424C124.013 56.7412 124.127 57.0835 124.184 57.4374L124.076 57.4678Z" fill="#32338C"/>
<g style="mix-blend-mode:multiply" opacity="0.4">
<path d="M114.581 63.0378C114.527 63.4702 113.905 63.7506 113.166 63.6594C112.426 63.5682 111.892 63.1426 111.946 62.7068C112 62.2711 112.622 61.9907 113.362 62.0819C114.101 62.1731 114.635 62.6021 114.581 63.0378Z" fill="#F8AB74"/>
</g>
<g style="mix-blend-mode:multiply" opacity="0.4">
<path d="M123.711 64.1799C123.657 64.6156 123.036 64.8926 122.296 64.8014C121.556 64.7102 121.023 64.2846 121.077 63.8489C121.131 63.4131 121.752 63.1361 122.492 63.2273C123.232 63.3185 123.765 63.7475 123.711 64.1799Z" fill="#F8AB74"/>
</g>
<path d="M118.361 57.7012C118.442 58.4909 118.344 59.2888 118.074 60.0353C117.91 60.409 117.66 60.7389 117.344 60.998C117.041 61.2344 116.769 61.5091 116.537 61.8154C116.336 62.1134 116.257 62.4766 116.314 62.8312C116.372 63.1858 116.563 63.505 116.848 63.7239C117.146 63.9481 117.511 64.0669 117.885 64.0617C118.269 64.0933 118.652 63.9841 118.962 63.7543C118.671 64.0269 118.287 64.179 117.888 64.1799C117.686 64.1894 117.484 64.1735 117.287 64.1326C117.083 64.088 116.891 64.0043 116.719 63.886C116.545 63.7699 116.396 63.6206 116.28 63.4467C116.164 63.2728 116.084 63.0778 116.044 62.8727C115.966 62.4487 116.057 62.0114 116.297 61.6533C116.547 61.3382 116.836 61.0566 117.158 60.8156C117.45 60.5816 117.689 60.2894 117.861 59.9576C118.027 59.6152 118.141 59.2496 118.199 58.8733C118.287 58.4781 118.317 58.0998 118.361 57.7012Z" fill="#32338C"/>
<path d="M114.969 64.1392C115.263 64.5983 115.602 65.0262 115.983 65.416C116.351 65.7811 116.823 66.0241 117.334 66.1118C117.859 66.148 118.385 66.0479 118.861 65.8213C119.363 65.6053 119.83 65.315 120.246 64.96C119.907 65.4134 119.47 65.785 118.969 66.0477C118.458 66.3448 117.869 66.4791 117.28 66.4327C116.696 66.3377 116.165 66.0399 115.78 65.5916C115.426 65.1589 115.152 64.6672 114.969 64.1392Z" fill="#32338C"/>
<path d="M93.1348 92.7394C92.6592 91.7593 92.4841 90.6604 92.6315 89.5811C92.7463 88.3752 93.1145 87.1524 93.9387 86.264C94.1414 86.0512 94.4825 85.8519 94.7021 86.0478C94.7627 86.123 94.805 86.2114 94.8255 86.3058C94.846 86.4002 94.8442 86.4981 94.8203 86.5917C94.7021 87.5712 94.4488 88.5339 94.3441 89.5169C94.1907 90.5002 94.3342 91.507 94.7562 92.4084C94.8237 90.912 94.9352 89.3683 95.6885 88.0644C95.8961 87.6813 96.1912 87.3527 96.5498 87.1051C96.6125 87.0518 96.6893 87.018 96.7709 87.0078C96.8525 86.9976 96.9354 87.0115 97.0092 87.0477C97.0558 87.0904 97.0926 87.1428 97.117 87.2011C97.1415 87.2594 97.1531 87.3223 97.1511 87.3855C97.1888 87.7005 97.1944 88.0185 97.168 88.3346C97.2968 88.0412 97.4881 87.7795 97.7287 87.5679C97.8499 87.4571 98.0041 87.3892 98.1676 87.3745C98.3312 87.3599 98.495 87.3993 98.634 87.4868C98.9312 87.7199 98.9076 88.1624 98.8569 88.5441C98.9712 88.3632 99.1364 88.2203 99.3317 88.1331C99.5271 88.046 99.7438 88.0185 99.9547 88.0543C100.252 88.6015 100.083 89.2737 99.9547 89.8817C99.7797 90.6494 99.6667 91.43 99.6169 92.2158C99.6306 92.6846 99.5261 93.1492 99.3129 93.567C99.1609 93.8 98.9988 94.7593 97.1544 94.7458C96.4062 94.6939 95.6702 94.5276 94.9723 94.2527C94.1885 94.0025 93.5306 93.4607 93.1348 92.7394Z" fill="#FE814B"/>
<path d="M97.1849 88.22C97.0194 88.7469 96.864 89.2705 96.739 89.8008C96.614 90.3311 96.5127 90.8682 96.4451 91.4087C96.3707 91.9475 96.3234 92.4898 96.3032 93.0334C96.283 93.5806 96.3032 94.1279 96.3032 94.6785C96.1783 94.1385 96.107 93.5874 96.0904 93.0334C96.0701 92.4782 96.0973 91.9222 96.1715 91.3715C96.2462 90.8207 96.3671 90.2772 96.5329 89.7468C96.7001 89.2179 96.9185 88.7065 97.1849 88.22Z" fill="#32338C"/>
<path d="M98.8602 88.5002C98.7555 88.99 98.6576 89.4764 98.5833 89.9662C98.5089 90.456 98.4481 90.9458 98.4177 91.4356C98.3873 91.9254 98.3704 92.4219 98.3738 92.9185C98.3772 93.415 98.411 93.9082 98.4448 94.4081C98.3065 93.9248 98.2149 93.4294 98.1711 92.9286C98.125 92.4266 98.1193 91.9217 98.1543 91.4187C98.1901 90.9156 98.2669 90.4163 98.384 89.9257C98.4978 89.4367 98.6572 88.9595 98.8602 88.5002Z" fill="#32338C"/>
<path d="M125.657 101.316C127.103 96.0026 132.359 81.6737 135.453 78.5897C136.294 77.7554 137.716 78.2857 138.415 79.245C139.114 80.2044 139.165 81.4778 139.111 82.6601C138.905 87.1763 137.669 91.5709 136.392 95.9081C134.726 101.566 126.346 111.602 125.177 111.2C120.958 109.757 108.592 90.642 108.592 90.642L113.73 89.9664L125.657 101.316Z" fill="#FE814B"/>
<path d="M100.495 94.8777C100.874 95.3675 101.235 95.864 101.6 96.3572L102.691 97.8401L103.785 99.323C104.15 99.8161 104.518 100.309 104.873 100.813C104.434 100.38 104.025 99.9175 103.626 99.4615C103.228 99.0054 102.85 98.5055 102.481 98.009C102.113 97.5124 101.762 96.9956 101.434 96.4856C101.107 95.9755 100.782 95.4249 100.495 94.8777Z" fill="#32338C"/>
<path d="M113.716 89.953L113.922 84.0282C113.926 83.9154 113.903 83.8033 113.856 83.7009C113.809 83.5984 113.738 83.5084 113.65 83.4382C113.561 83.3679 113.458 83.3193 113.347 83.2962C113.237 83.2732 113.123 83.2763 113.014 83.3054L112.784 83.3662L111.889 82.5251C111.798 82.4386 111.685 82.3776 111.563 82.3479C111.441 82.3183 111.314 82.3211 111.193 82.3562L110.467 82.5656L109.406 81.8191C109.328 81.7644 109.239 81.7259 109.146 81.7056C109.053 81.6853 108.956 81.6837 108.862 81.7009L108.261 81.809L108.062 81.7212C107.951 81.6724 107.829 81.6523 107.708 81.6629C107.587 81.6735 107.471 81.7143 107.37 81.7816C107.269 81.8489 107.187 81.9405 107.13 82.048C107.074 82.1555 107.046 82.2754 107.048 82.3967V86.0347L108.575 90.6421" fill="#FE814B"/>
<path d="M134.747 32.3805C135.657 30.3109 137.334 28.6749 139.425 27.817L139.489 27.79L139.206 27.665C137.245 26.8048 135.669 25.254 134.777 23.3076L134.737 23.2197L134.527 23.6453C133.671 25.3196 132.296 26.6725 130.609 27.5029L130.004 27.8001H130.042C132.049 28.6159 133.681 30.1501 134.619 32.1035L134.747 32.3805Z" fill="#FE814B"/>
<path d="M140.712 35.1945C141.168 34.1604 142.007 33.3432 143.053 32.9144H143.083L142.942 32.8502C141.961 32.4169 141.175 31.6377 140.732 30.6613L140.712 30.6174L140.604 30.8336C140.177 31.6715 139.489 32.3483 138.645 32.7624L138.341 32.9144H138.361C139.364 33.3233 140.179 34.0902 140.648 35.0661L140.712 35.1945Z" fill="#F8AB74"/>
<path d="M10.4343 73.9757C11.3429 71.9061 13.0205 70.2708 15.1127 69.4155L15.1769 69.3885L14.8931 69.2601C12.9262 68.3878 11.3513 66.819 10.4715 64.8554L10.431 64.7676L10.2114 65.1999C9.35577 66.8749 7.98122 68.2282 6.29305 69.0575L5.68842 69.3581H5.72557C7.73326 70.1753 9.36487 71.7106 10.3026 73.6649L10.4343 73.9757Z" fill="#FE814B"/>
<path d="M16.3997 76.7724C16.8558 75.7383 17.6948 74.9211 18.7405 74.4923H18.7709L18.629 74.4281C17.6489 73.9961 16.8624 73.2181 16.4199 72.2426L16.3997 72.1987L16.2916 72.4149C15.8634 73.2521 15.1762 73.9286 14.3324 74.3437L14.0284 74.4923H14.0486C15.0522 74.9015 15.8675 75.6698 16.3355 76.6474L16.3997 76.7724Z" fill="#F8AB74"/>
<path d="M84.3557 148.41C83.6682 146.846 82.4003 145.609 80.819 144.962L80.7684 144.941L80.9846 144.847C82.4672 144.191 83.6565 143.013 84.3253 141.536L84.3557 141.472L84.5212 141.81C85.1676 143.077 86.2069 144.101 87.4836 144.728L87.9396 144.955H87.9126C86.3938 145.572 85.1586 146.731 84.4469 148.208L84.3557 148.41Z" fill="#FE814B"/>
<path d="M79.8429 150.538C79.4987 149.757 78.8658 149.138 78.0763 148.812H78.0526L78.1573 148.765C78.9052 148.442 79.5069 147.854 79.8463 147.113V147.079L79.9307 147.241C80.2533 147.875 80.7723 148.387 81.4102 148.701L81.6399 148.812C80.8813 149.121 80.2649 149.702 79.9104 150.44L79.8429 150.538Z" fill="#F8AB74"/>
</g>
<defs>
<clipPath id="clip0_5_590">
<rect width="159" height="157" fill="white"/>
</clipPath>
</defs>
</svg>
