<svg width="226" height="69" viewBox="0 0 226 69" fill="none" xmlns="http://www.w3.org/2000/svg">
<path d="M49.8171 26.1515C49.8171 32.8421 50.0246 39.5326 49.7826 46.1893C49.2986 59.7403 36.1617 70.2686 22.4026 68.8762C10.1646 67.6535 -0.102933 57.1931 0.000778894 44.4912C0.139062 29.1741 14.2093 17.6269 30.3193 20.8533C33.638 21.5326 36.6457 22.7552 39.3422 24.793C39.7916 25.1326 40.2756 25.7439 40.8979 25.4383C41.5202 25.1326 41.2436 24.3854 41.2436 23.842C41.2782 18.2382 41.2436 12.6344 41.2436 7.03063C41.2436 6.28346 41.209 5.53628 41.2782 4.78911C41.5547 1.86834 43.1796 0.000411425 45.4958 0.000411425C48.054 -0.033551 49.9554 2.03816 49.99 5.09477C50.0591 12.125 49.748 39.9742 49.748 47.0044L49.8171 26.1515Z" fill="#7B79FC"/>
<path d="M176 43.8261C176 30.2656 187.368 19 201.121 19C214.459 19 225.931 30.5786 226 43.8957C226.034 57.7691 214.839 69 200.948 69C186.885 69 176.069 57.943 176 43.8261Z" fill="#7B79FC"/>
<path d="M149.024 54.726C154.032 44.2033 158.838 34.039 163.644 23.8746C164.854 21.301 167.24 20.3888 169.761 21.5616C172.013 22.6041 172.618 24.6239 171.341 27.2627C166.131 37.8832 160.888 48.471 155.611 59.0588C154.603 61.0461 153.964 63.2288 152.519 65.0206C150.402 67.6594 147.108 67.7246 145.394 64.8251C143.478 61.5673 141.899 58.1141 140.218 54.726C135.782 45.767 131.412 36.8081 127.01 27.8491C126.237 26.2528 125.363 24.6565 126.674 22.8973C128.724 20.0956 132.354 20.4214 134.101 23.7117C135.748 26.7741 137.092 29.9341 138.605 33.0616C141.999 40.131 145.428 47.233 149.024 54.726Z" fill="#7B79FC"/>
<path d="M65.0085 52.6269C65.0763 46.4294 64.6693 40.1989 67.3487 34.2321C71.2492 25.5951 81.5599 18.87 91.1583 19.0019C93.9056 19.0349 95.7371 20.4524 95.9745 22.6611C96.2119 25.0676 94.7874 26.8148 91.8028 27.1115C87.2918 27.573 83.154 28.6609 79.6945 31.7267C75.8279 35.1551 73.759 39.3088 73.6234 44.3196C73.4538 50.2204 73.5555 56.1543 73.5216 62.0881C73.4877 65.088 71.8258 67 69.2142 67C66.84 67 65.1102 65.0221 65.0424 62.1211C64.9746 58.9564 65.0085 55.7917 65.0085 52.6269Z" fill="#7B79FC"/>
<path d="M107.038 43.9512C107.038 37.9722 107.038 31.9608 107.038 25.9818C107.038 22.8299 108.62 21.1727 111.67 21.0102C114.721 20.8477 116.944 22.6349 116.944 25.7219C117.019 37.9397 117.019 50.1901 116.944 62.4079C116.944 65.3974 114.646 67.1521 111.52 66.9896C108.657 66.8272 107 65.105 107 62.1805C107.038 56.104 107.038 50.0276 107.038 43.9512Z" fill="#7B79FC"/>
<path d="M119 7.27312C119.035 10.4756 116.508 12.9018 113.07 12.9988C109.877 13.0635 107 10.508 107 7.62895C107 4.65289 109.842 2.03266 113.14 2.00032C116.228 1.96797 118.965 4.42645 119 7.27312Z" fill="#7B79FC"/>
<path d="M25.1764 58.9959C17.067 59.1878 10.2615 52.6011 10.0071 44.2238C9.75266 36.1983 16.3992 29.196 24.4768 29.0041C32.8088 28.8123 39.7733 35.3031 39.9959 43.3925C40.1867 51.8977 33.6674 58.7721 25.1764 58.9959Z" fill="white"/>
<path d="M186.006 44.2089C185.775 35.9692 192.46 29.2625 201.219 29.007C209.386 28.7515 216.762 35.554 216.993 43.6021C217.256 51.778 210.44 58.8041 201.878 58.9957C193.481 59.1874 185.808 52.8958 186.006 44.2089Z" fill="white"/>
<ellipse cx="25" cy="43.5" rx="6" ry="6.5" fill="#7B79FC"/>
</svg>
