<svg width="20" height="20" viewBox="0 0 20 20" fill="none" xmlns="http://www.w3.org/2000/svg">
<path d="M13.209 0.5C9.5986 0.5 6.67698 1.54513 6.67698 2.8753V5.25059C3.11404 5.36936 0.738739 6.36698 0.738739 7.62589V14.7518C0.738739 16.0463 3.66035 17.1271 7.27081 17.1271H7.35038C8.21974 17.1271 9.07247 17.0618 9.90739 16.9371C10.7364 18.4869 12.3943 19.5 14.2898 19.5C15.4289 19.4999 16.5365 19.1261 17.4427 18.436C18.3489 17.7458 19.0036 16.7774 19.3064 15.6793C19.5547 15.443 19.715 15.1544 19.7423 14.8278V2.8753C19.7423 1.54513 16.8207 0.5 13.2102 0.5H13.209ZM7.27081 6.43824C10.2399 6.43824 12.6152 6.97268 12.6152 7.62589C12.6152 8.2791 10.2399 8.81354 7.27081 8.81354C4.30168 8.81354 1.92639 8.2791 1.92639 7.62589C1.92639 6.97268 4.30168 6.43824 7.27081 6.43824ZM7.27081 15.9394C4.05228 15.9394 2.2233 15.0962 1.92639 14.7518V13.8017C3.62356 14.514 5.45842 14.8382 7.29693 14.7506C7.90026 14.7494 8.52021 14.715 9.13066 14.6496C9.07959 15.0903 9.15679 15.4952 9.27674 15.8812C8.73993 15.9062 8.12829 15.9418 7.50952 15.9418L7.25893 15.9394H7.27081ZM9.13541 13.4572C8.58078 13.5249 7.93826 13.5641 7.28743 13.5641H7.27081C4.05347 13.5641 2.22449 12.7209 1.92758 12.3765V11.3789C3.61953 12.107 5.45279 12.4478 7.29337 12.3765C8.04688 12.3752 8.79949 12.3244 9.54634 12.2245C9.31237 12.5879 9.20074 13.0012 9.14016 13.4299L9.13541 13.4572ZM7.27081 11.1888C4.05228 11.1888 2.2233 10.3456 1.92639 10.0012V8.9323C3.61834 9.6604 5.4516 10.0013 7.29218 9.92993C9.1478 9.99186 10.994 9.64056 12.6972 8.90142L12.6164 9.3361C11.7249 9.63595 10.9309 10.171 10.3183 10.8848C9.4252 11.0808 8.40501 11.1888 7.35988 11.1888H7.26843H7.27081ZM14.2898 18.3147C13.2157 18.3147 12.1856 17.888 11.4261 17.1285C10.6666 16.369 10.2399 15.3389 10.2399 14.2648C10.2399 13.1908 10.6666 12.1606 11.4261 11.4011C12.1856 10.6416 13.2157 10.215 14.2898 10.215C15.3639 10.215 16.394 10.6416 17.1535 11.4011C17.913 12.1606 18.3397 13.1908 18.3397 14.2648C18.3397 15.3389 17.913 16.369 17.1535 17.1285C16.394 17.888 15.3639 18.3147 14.2898 18.3147ZM18.5535 10.0012C18.3456 10.1995 18.0962 10.3575 17.8207 10.4596C17.4786 10.1698 17.1081 9.9133 16.7067 9.70665C17.3625 9.53678 17.9971 9.29377 18.5986 8.98219L18.5535 10.0012ZM18.5535 7.62589C18.2684 7.99406 16.6414 8.74228 13.8029 8.81354V7.62589H13.8159C15.4739 7.62838 17.1138 7.28242 18.6295 6.61045L18.5535 7.62589ZM18.5535 5.25059C18.2566 5.64252 16.4276 6.43824 13.209 6.43824H12.9359C11.404 5.65251 9.7062 5.24525 7.98458 5.25059H7.86463V4.18171C9.55658 4.90981 11.3898 5.25066 13.2304 5.17933C15.086 5.24127 16.9322 4.88996 18.6354 4.15083L18.5535 5.25059ZM13.209 4.06295C10.2399 4.06295 7.86463 3.5285 7.86463 2.8753C7.86463 2.22209 10.2399 1.68765 13.209 1.68765C16.1782 1.68765 18.5535 2.22209 18.5535 2.8753C18.5535 3.5285 16.1782 4.06295 13.209 4.06295Z" fill="#5B67CA"/>
</svg>
