<svg width="24" height="33" viewBox="0 0 24 33" fill="none" xmlns="http://www.w3.org/2000/svg">
<path fill-rule="evenodd" clip-rule="evenodd" d="M11.6602 31.5C5.9103 31.5 1 30.6052 1 27.0218C1 23.4384 5.87915 20.1304 11.6602 20.1304C17.4102 20.1304 22.3205 23.4063 22.3205 26.9897C22.3205 30.5717 17.4413 31.5 11.6602 31.5Z" stroke="white" stroke-width="1.5" stroke-linecap="round" stroke-linejoin="round"/>
<path fill-rule="evenodd" clip-rule="evenodd" d="M11.6488 15.1647C15.4221 15.1647 18.4805 12.1064 18.4805 8.33308C18.4805 4.55974 15.4221 1.5 11.6488 1.5C7.87545 1.5 4.81571 4.55974 4.81571 8.33308C4.80297 12.0937 7.84005 15.152 11.6007 15.1647C11.6176 15.1647 11.6332 15.1647 11.6488 15.1647Z" stroke="white" stroke-width="1.5" stroke-linecap="round" stroke-linejoin="round"/>
</svg>
