<svg width="20" height="20" viewBox="0 0 20 20" fill="none" xmlns="http://www.w3.org/2000/svg">
<path d="M13.209 0.5C9.59851 0.5 6.67689 1.54513 6.67689 2.8753V5.25059C3.11394 5.36936 0.738647 6.36698 0.738647 7.62589V14.7518C0.738647 16.0463 3.66026 17.1271 7.27071 17.1271H7.35029C8.21965 17.1271 9.07238 17.0618 9.90729 16.9371C10.7363 18.4869 12.3942 19.5 14.2897 19.5C15.4288 19.4999 16.5364 19.1261 17.4426 18.436C18.3488 17.7458 19.0035 16.7774 19.3063 15.6793C19.5546 15.443 19.7149 15.1544 19.7422 14.8278V2.8753C19.7422 1.54513 16.8206 0.5 13.2101 0.5H13.209ZM7.27071 6.43824C10.2398 6.43824 12.6151 6.97268 12.6151 7.62589C12.6151 8.2791 10.2398 8.81354 7.27071 8.81354C4.30159 8.81354 1.9263 8.2791 1.9263 7.62589C1.9263 6.97268 4.30159 6.43824 7.27071 6.43824ZM7.27071 15.9394C4.05219 15.9394 2.22321 15.0962 1.9263 14.7518V13.8017C3.62347 14.514 5.45833 14.8382 7.29684 14.7506C7.90017 14.7494 8.52012 14.715 9.13057 14.6496C9.0795 15.0903 9.1567 15.4952 9.27665 15.8812C8.73984 15.9062 8.1282 15.9418 7.50943 15.9418L7.25884 15.9394H7.27071ZM9.13532 13.4572C8.58069 13.5249 7.93817 13.5641 7.28734 13.5641H7.27071C4.05337 13.5641 2.2244 12.7209 1.92748 12.3765V11.3789C3.61944 12.107 5.4527 12.4478 7.29328 12.3765C8.04679 12.3752 8.79939 12.3244 9.54625 12.2245C9.31228 12.5879 9.20064 13.0012 9.14007 13.4299L9.13532 13.4572ZM7.27071 11.1888C4.05219 11.1888 2.22321 10.3456 1.9263 10.0012V8.9323C3.61825 9.6604 5.45151 10.0013 7.29209 9.92993C9.14771 9.99186 10.9939 9.64056 12.6971 8.90142L12.6163 9.3361C11.7248 9.63595 10.9308 10.171 10.3182 10.8848C9.42511 11.0808 8.40492 11.1888 7.35979 11.1888H7.26834H7.27071ZM14.2897 18.3147C13.2156 18.3147 12.1855 17.888 11.426 17.1285C10.6665 16.369 10.2398 15.3389 10.2398 14.2648C10.2398 13.1908 10.6665 12.1606 11.426 11.4011C12.1855 10.6416 13.2156 10.215 14.2897 10.215C15.3638 10.215 16.3939 10.6416 17.1534 11.4011C17.9129 12.1606 18.3396 13.1908 18.3396 14.2648C18.3396 15.3389 17.9129 16.369 17.1534 17.1285C16.3939 17.888 15.3638 18.3147 14.2897 18.3147ZM18.5534 10.0012C18.3455 10.1995 18.0961 10.3575 17.8206 10.4596C17.4786 10.1698 17.108 9.9133 16.7066 9.70665C17.3624 9.53678 17.997 9.29377 18.5985 8.98219L18.5534 10.0012ZM18.5534 7.62589C18.2683 7.99406 16.6413 8.74228 13.8028 8.81354V7.62589H13.8158C15.4738 7.62838 17.1137 7.28242 18.6294 6.61045L18.5534 7.62589ZM18.5534 5.25059C18.2565 5.64252 16.4275 6.43824 13.209 6.43824H12.9358C11.4039 5.65251 9.7061 5.24525 7.98449 5.25059H7.86454V4.18171C9.55649 4.90981 11.3898 5.25066 13.2303 5.17933C15.086 5.24127 16.9321 4.88996 18.6353 4.15083L18.5534 5.25059ZM13.209 4.06295C10.2398 4.06295 7.86454 3.5285 7.86454 2.8753C7.86454 2.22209 10.2398 1.68765 13.209 1.68765C16.1781 1.68765 18.5534 2.22209 18.5534 2.8753C18.5534 3.5285 16.1781 4.06295 13.209 4.06295Z" fill="#C6CEDD"/>
</svg>
